<?xml version="1.0" encoding="utf-8"?>
<!-- Generator: Adobe Illustrator 17.0.0, SVG Export Plug-In . SVG Version: 6.00 Build 0)  -->
<!DOCTYPE svg PUBLIC "-//W3C//DTD SVG 1.1//EN" "http://www.w3.org/Graphics/SVG/1.1/DTD/svg11.dtd">
<svg version="1.1" id="Layer_1" xmlns="http://www.w3.org/2000/svg" xmlns:xlink="http://www.w3.org/1999/xlink" x="0px" y="0px"
	 width="43.8px" height="43.8px" viewBox="0 0 43.8 43.8" style="enable-background:new 0 0 43.8 43.8;" xml:space="preserve">
<style type="text/css">
	.st0{fill:#8060D0;}
</style>
<g transform="translate(0,-952.36218)">
	<path class="st0" d="M21.9,952.4C9.8,952.4,0,962.2,0,974.2c0,12.1,9.8,21.9,21.9,21.9s21.9-9.8,21.9-21.9
		C43.8,962.2,34,952.4,21.9,952.4L21.9,952.4z M21.9,953.4c5.6,0,10.6,2.2,14.3,5.7l-13.7,13.7c-0.2-0.1-0.4-0.1-0.7-0.1
		c-0.3,0-0.5,0.1-0.7,0.2l-9.5-9.5c-0.1-0.1-0.3-0.2-0.5-0.1c-0.3,0.1-0.4,0.3-0.4,0.6c0,0.1,0.1,0.2,0.1,0.3l9.5,9.6
		c-0.1,0.2-0.1,0.4-0.1,0.6c0,0.7,0.4,1.2,1,1.5v19.3C10.1,994.8,1,985.6,1,974.2C1,962.7,10.4,953.4,21.9,953.4L21.9,953.4z
		 M37,959.9c3.6,3.7,5.8,8.8,5.8,14.4c0,11.3-9.1,20.5-20.3,20.8v-19.3c0.6-0.2,1-0.8,1-1.5c0-0.2-0.1-0.5-0.2-0.7L37,959.9
		L37,959.9z"/>
</g>
</svg>
