<?xml version="1.0" encoding="utf-8"?>
<!-- Generator: Adobe Illustrator 17.0.0, SVG Export Plug-In . SVG Version: 6.00 Build 0)  -->
<!DOCTYPE svg PUBLIC "-//W3C//DTD SVG 1.1//EN" "http://www.w3.org/Graphics/SVG/1.1/DTD/svg11.dtd">
<svg version="1.1" id="Layer_1" xmlns="http://www.w3.org/2000/svg" xmlns:xlink="http://www.w3.org/1999/xlink" x="0px" y="0px"
	 width="41.9px" height="45px" viewBox="0 0 41.9 45" style="enable-background:new 0 0 41.9 45;" xml:space="preserve">
<style type="text/css">
	.st0{fill:#42CB82;}
</style>
<path class="st0" d="M40.9,8.2c-2.4,1.3-5.1,2-7.8,1.9c-3.6,0-7.3-1-10.9-2c-3.7-1-7.5-2-11.3-2c-2.6,0-5.1,0.5-7.4,1.6V5.6
	c1.5-0.4,2.4-1.9,2-3.4c-0.4-1.5-1.9-2.4-3.4-2s-2.4,1.9-2,3.4c0.3,1,1,1.8,2,2V45h1.4V32.6c2.3-1.2,4.8-1.8,7.4-1.8l0,0
	c3.6,0,7.3,1,10.9,2c3.7,1,7.5,2,11.3,2c3,0,5.9-0.7,8.5-2.1l0.4-0.2V7.7L40.9,8.2z M1.4,2.8c0-0.8,0.7-1.4,1.4-1.4
	c0.8,0,1.4,0.7,1.4,1.4c0,0.8-0.6,1.4-1.4,1.4C2,4.2,1.4,3.6,1.4,2.8z M40.5,31.7c-2.3,1.2-4.8,1.8-7.4,1.7c-3.6,0-7.3-1-10.9-2
	c-3.7-1-7.5-2-11.3-2l0,0c-2.6,0-5.1,0.5-7.4,1.6V9.3C5.8,8.1,8.4,7.5,11,7.5c3.6,0,7.3,1,10.9,2c3.7,1,7.5,2,11.3,2
	c2.6,0,5.1-0.5,7.4-1.6V31.7z"/>
</svg>
