<?xml version="1.0" encoding="utf-8"?>
<!-- Generator: Adobe Illustrator 17.0.0, SVG Export Plug-In . SVG Version: 6.00 Build 0)  -->
<!DOCTYPE svg PUBLIC "-//W3C//DTD SVG 1.1//EN" "http://www.w3.org/Graphics/SVG/1.1/DTD/svg11.dtd">
<svg version="1.1" id="Layer_1" xmlns="http://www.w3.org/2000/svg" xmlns:xlink="http://www.w3.org/1999/xlink" x="0px" y="0px"
	 width="40px" height="51.9px" viewBox="0 0 40 51.9" style="enable-background:new 0 0 40 51.9;" xml:space="preserve">
<style type="text/css">
	.st0{fill:#03D8DF;}
</style>
<g>
	<path class="st0" d="M20,31.1c-2.1,0-4.1,0.8-5.6,2.3c-1.5,1.5-2.3,3.5-2.3,5.7c0,2.1,0.8,4.1,2.3,5.6c1.5,1.5,3.5,2.4,5.5,2.4
		c2.1,0,4.1-0.8,5.6-2.3c1.5-1.5,2.3-3.5,2.3-5.7c0-2.2-0.8-4.2-2.3-5.7C24.1,31.9,22.1,31.1,20,31.1z M20,45.8
		c-3.7,0-6.7-3-6.7-6.8c0-3.7,3-6.8,6.7-6.8s6.7,3,6.7,6.8C26.7,42.8,23.7,45.8,20,45.8z"/>
	<path class="st0" d="M39.9,0.3C39.8,0.2,39.6,0,39.4,0H24.5c-0.2,0-0.4,0.2-0.5,0.3l0,0L20,8.1l-3.9-7.7c0-0.2-0.2-0.4-0.6-0.4H0.7
		C0.4,0,0.3,0.2,0.2,0.3C0,0.4,0,0.5,0,0.6c0,0.1,0,0.2,0.1,0.3L12,24.6l0,0l0,0c0.1,0.1,0.3,0.3,0.5,0.3h15c0.2,0,0.4-0.2,0.5-0.3
		l0,0L40,0.8L39.9,0.3L39.9,0.3z M20.7,9.5l4.1-8.3h13.6l-10.9,22L20.7,9.5z M15.2,1.3l11.2,22.6H12.9L1.6,1.3H15.2z"/>
	<path class="st0" d="M20,26.3c-3.4,0-6.5,1.3-8.9,3.8c-2.4,2.4-3.7,5.6-3.7,9s1.3,6.6,3.7,9c2.4,2.4,5.6,3.8,8.9,3.8
		s6.5-1.3,8.9-3.8c2.4-2.4,3.7-5.6,3.7-9C32.7,32,27,26.3,20,26.3z M20,50.6c-6.3,0-11.4-5.2-11.4-11.6c0-3.1,1.2-6,3.4-8.2
		c2.2-2.2,5-3.4,8-3.4c6.3,0,11.4,5.2,11.4,11.6c0,3.1-1.2,6.1-3.3,8.2C25.9,49.4,23.1,50.6,20,50.6z"/>
</g>
</svg>
