<?xml version="1.0" encoding="utf-8"?>
<!-- Generator: Adobe Illustrator 17.0.0, SVG Export Plug-In . SVG Version: 6.00 Build 0)  -->
<!DOCTYPE svg PUBLIC "-//W3C//DTD SVG 1.1//EN" "http://www.w3.org/Graphics/SVG/1.1/DTD/svg11.dtd">
<svg version="1.1" id="Layer_1" xmlns="http://www.w3.org/2000/svg" xmlns:xlink="http://www.w3.org/1999/xlink" x="0px" y="0px"
	 width="123px" height="123px" viewBox="0 0 123 123" style="enable-background:new 0 0 123 123;" xml:space="preserve">
<style type="text/css">
	.st0{fill:#FFC6EF;}
	.st1{fill:#FFFFFF;}
	.st2{fill:#D782D9;}
	.st3{fill:#FFA3E5;}
</style>
<g>
	<path class="st0" d="M61.5,0C27.6,0,0,27.6,0,61.5C0,95.4,27.6,123,61.5,123c33.9,0,61.5-27.6,61.5-61.5C123,27.6,95.4,0,61.5,0z"
		/>
	<g>
		<polygon class="st1" points="61.5,93.5 70.1,78.5 78.8,63.5 61.5,63.5 44.2,63.5 52.9,78.5 		"/>
		<polygon class="st2" points="65.3,86.9 57.7,86.9 61.5,93.5 		"/>
		<path class="st2" d="M77.5,29.5H45.5c-0.7,0-1.3,0.6-1.3,1.3v32.7h34.6V30.8C78.8,30.1,78.2,29.5,77.5,29.5z"/>
		<path class="st3" d="M45.5,29.5c-0.7,0-1.3,0.6-1.3,1.3v32.7h17.5v-34H45.5z"/>
	</g>
</g>
</svg>
