<?xml version="1.0" encoding="utf-8"?>
<!-- Generator: Adobe Illustrator 17.0.0, SVG Export Plug-In . SVG Version: 6.00 Build 0)  -->
<!DOCTYPE svg PUBLIC "-//W3C//DTD SVG 1.1//EN" "http://www.w3.org/Graphics/SVG/1.1/DTD/svg11.dtd">
<svg version="1.1" id="Layer_1" xmlns="http://www.w3.org/2000/svg" xmlns:xlink="http://www.w3.org/1999/xlink" x="0px" y="0px"
	 width="123px" height="123px" viewBox="0 0 123 123" style="enable-background:new 0 0 123 123;" xml:space="preserve">
<style type="text/css">
	.st0{fill:#87BBFD;}
	.st1{fill:#FFFFFF;}
	.st2{fill:#6772E5;}
	.st3{opacity:0.8;fill:#87BBFD;}
</style>
<g>
	<path class="st0" d="M61.5,0C27.6,0,0,27.6,0,61.5C0,95.4,27.6,123,61.5,123c33.9,0,61.5-27.6,61.5-61.5C123,27.6,95.4,0,61.5,0z"
		/>
	<g>
		<path class="st1" d="M74.2,30.5H48.8c0,0-5.7,0-5.7,5.7v50.6c0,5.7,5.7,5.7,5.7,5.7h25.3c0,0,5.7,0,5.7-5.7V36.2
			C79.6,30.5,74.2,30.5,74.2,30.5z"/>
	</g>
	<path class="st0" d="M56.1,35.7h10.6c0.5,0,0.8,0.3,0.8,0.8s-0.3,0.8-0.8,0.8H56.1c-0.5,0-0.8-0.3-0.8-0.8S55.6,35.7,56.1,35.7z"/>
	<path class="st0" d="M61.5,90.2c-1.6,0-2.8-1.3-2.8-2.8c0-1.6,1.3-2.8,2.8-2.8s2.8,1.3,2.8,2.8C64.3,88.9,63.1,90.2,61.5,90.2z"/>
	<rect x="46" y="40.1" class="st2" width="31" height="42.4"/>
	<rect x="48.9" y="45.2" class="st3" width="25.2" height="3.4"/>
	<rect x="48.9" y="51.7" class="st3" width="25.2" height="3.4"/>
	<rect x="48.9" y="58.1" class="st3" width="12.6" height="3.4"/>
</g>
</svg>
