<?xml version="1.0" encoding="utf-8"?>
<!-- Generator: Adobe Illustrator 17.0.0, SVG Export Plug-In . SVG Version: 6.00 Build 0)  -->
<!DOCTYPE svg PUBLIC "-//W3C//DTD SVG 1.1//EN" "http://www.w3.org/Graphics/SVG/1.1/DTD/svg11.dtd">
<svg version="1.1" id="Layer_1" xmlns="http://www.w3.org/2000/svg" xmlns:xlink="http://www.w3.org/1999/xlink" x="0px" y="0px"
	 width="123px" height="123px" viewBox="0 0 123 123" style="enable-background:new 0 0 123 123;" xml:space="preserve">
<style type="text/css">
	.st0{fill:#B9F4BC;}
	.st1{fill:none;stroke:#000000;stroke-width:4;stroke-miterlimit:10;}
	.st2{fill:#FFFFFF;}
	.st3{fill:#43B071;}
</style>
<g>
	<path class="st0" d="M61.5,0C27.6,0,0,27.6,0,61.5C0,95.4,27.6,123,61.5,123c33.9,0,61.5-27.6,61.5-61.5C123,27.6,95.4,0,61.5,0z"
		/>
	<g>
		<path class="st1" d="M29.4,67.1"/>
		<path class="st2" d="M94,31.7H29c-1,0-1.9,0.8-1.9,1.9v43.7c0,1,0.8,1.9,1.9,1.9H94c1,0,1.9-0.8,1.9-1.9V33.6
			C95.9,32.6,95.1,31.7,94,31.7z"/>
		<circle class="st0" cx="61.5" cy="74.4" r="1.9"/>
		<rect x="30.8" y="35.5" class="st3" width="61.4" height="34.2"/>
		<path class="st2" d="M68.9,84.3V81H54.1v3.2c0,0.9-0.3,1.8-0.8,2.6l-3,4.4h22.3l-3-4.4C69.2,86.1,68.9,85.2,68.9,84.3z"/>
		<g>
			<path class="st0" d="M50.1,52.4l4-4c0.4-0.4,0.4-1.1,0-1.6c-0.4-0.4-1.1-0.4-1.6,0L48,51.5c-0.5,0.5-0.5,1.3,0,1.8l5.1,5.1
				c0.4,0.4,1.1,0.4,1.6,0c0.5-0.5,0.5-1.1,0-1.6L50.1,52.4z"/>
			<path class="st0" d="M75,51.5l-4.7-4.7c-0.4-0.4-1.1-0.4-1.6,0c-0.4,0.4-0.4,1.1,0,1.6l4,4l-4.5,4.5c-0.4,0.4-0.4,1.1,0,1.6
				c0.5,0.4,1.1,0.4,1.6,0l5.1-5.1C75.6,52.8,75.6,52,75,51.5z"/>
			<path class="st0" d="M65.8,45.9c-0.5-0.3-1.2-0.2-1.5,0.3l-7,11.5c-0.3,0.5-0.2,1.2,0.3,1.5c0.5,0.3,1.2,0.2,1.5-0.3l7-11.4
				C66.5,46.9,66.4,46.2,65.8,45.9z"/>
		</g>
	</g>
</g>
</svg>
