<?xml version="1.0" encoding="utf-8"?>
<!-- Generator: Adobe Illustrator 17.0.0, SVG Export Plug-In . SVG Version: 6.00 Build 0)  -->
<!DOCTYPE svg PUBLIC "-//W3C//DTD SVG 1.1//EN" "http://www.w3.org/Graphics/SVG/1.1/DTD/svg11.dtd">
<svg version="1.1" id="Layer_1" xmlns="http://www.w3.org/2000/svg" xmlns:xlink="http://www.w3.org/1999/xlink" x="0px" y="0px"
	 width="50px" height="50px" viewBox="0 0 50 50" style="enable-background:new 0 0 50 50;" xml:space="preserve">
<style type="text/css">
	.st0{fill:#FFFFFF;}
</style>
<g>
	<path class="st0" d="M16.3,32.6c9,0,16.3-7.3,16.3-16.3c0-9-7.3-16.3-16.3-16.3C7.3,0,0,7.3,0,16.3C0,25.3,7.3,32.6,16.3,32.6z
		 M16.3,8.1c4.5,0,8.2,3.7,8.2,8.2s-3.7,8.2-8.2,8.2c-4.5,0-8.2-3.7-8.2-8.2S11.8,8.1,16.3,8.1z"/>
	<path class="st0" d="M16.3,41.9c-4.5,0-8.2-3.7-8.2-8.2H0C0,42.7,7.3,50,16.3,50c9,0,16.3-7.3,16.3-16.3h-8.1
		C24.6,38.2,20.9,41.9,16.3,41.9z"/>
	<path class="st0" d="M33.7,0v8.1c4.5,0,8.2,3.7,8.2,8.2c0,4.5-3.7,8.2-8.2,8.2v8.1c9,0,16.3-7.3,16.3-16.3C50,7.3,42.7,0,33.7,0z"
		/>
</g>
</svg>
