<?xml version="1.0" encoding="utf-8"?>
<!-- Generator: Adobe Illustrator 17.0.0, SVG Export Plug-In . SVG Version: 6.00 Build 0)  -->
<!DOCTYPE svg PUBLIC "-//W3C//DTD SVG 1.1//EN" "http://www.w3.org/Graphics/SVG/1.1/DTD/svg11.dtd">
<svg version="1.1" id="Layer_1" xmlns="http://www.w3.org/2000/svg" xmlns:xlink="http://www.w3.org/1999/xlink" x="0px" y="0px"
	 width="242.5px" height="325.5px" viewBox="0 0 242.5 325.5" style="enable-background:new 0 0 242.5 325.5;" xml:space="preserve"
	>
<style type="text/css">
	.st0{opacity:0.2;fill:#FFFFFF;}
	.st1{opacity:0.1;fill:#FFFFFF;}
	.st2{opacity:0.3;fill:#FFFFFF;}
</style>
<g>
	<path class="st0" d="M242.5,320.5c0,2.8-2.2,5-5,5H5c-2.8,0-5-2.2-5-5V5c0-2.8,2.2-5,5-5h232.5c2.8,0,5,2.2,5,5V320.5z"/>
	<rect x="16.7" y="32.1" class="st1" width="209.2" height="234.3"/>
	<rect x="30.1" y="51.1" class="st2" width="182.2" height="125.9"/>
	<g>
		<rect x="30.1" y="192.9" class="st2" width="182.2" height="5.6"/>
		<rect x="30.1" y="213.6" class="st2" width="160.6" height="5.6"/>
		<rect x="30.1" y="234.3" class="st2" width="141.6" height="5.6"/>
	</g>
	<rect x="89.8" y="10.8" class="st2" width="63" height="10.4"/>
	<path class="st2" d="M121.3,87.7c-16.3,0-29.6,13.2-29.6,29.6s13.2,29.6,29.6,29.6s29.6-13.2,29.6-29.6S137.6,87.7,121.3,87.7z
		 M116.3,128.4v-11v-11l16.6,11L116.3,128.4z"/>
	<circle class="st0" cx="121.3" cy="296.5" r="13.5"/>
</g>
</svg>
