<?xml version="1.0" encoding="utf-8"?>
<!-- Generator: Adobe Illustrator 17.0.0, SVG Export Plug-In . SVG Version: 6.00 Build 0)  -->
<!DOCTYPE svg PUBLIC "-//W3C//DTD SVG 1.1//EN" "http://www.w3.org/Graphics/SVG/1.1/DTD/svg11.dtd">
<svg version="1.1" id="Layer_1" xmlns="http://www.w3.org/2000/svg" xmlns:xlink="http://www.w3.org/1999/xlink" x="0px" y="0px"
	 width="157.5px" height="245.8px" viewBox="0 0 157.5 245.8" style="enable-background:new 0 0 157.5 245.8;" xml:space="preserve"
	>
<style type="text/css">
	.st0{opacity:0.2;fill:#FFFFFF;}
	.st1{opacity:0.1;fill:#FFFFFF;}
</style>
<g>
	<path class="st0" d="M157.5,242.5c0,1.8-1.5,3.2-3.2,3.2H3.2c-1.8,0-3.2-1.5-3.2-3.2V3.2C0,1.5,1.5,0,3.2,0h151
		c1.8,0,3.2,1.5,3.2,3.2V242.5z"/>
	<circle class="st0" cx="78.8" cy="229.2" r="8.8"/>
	<rect x="11.1" y="17.8" class="st1" width="135.4" height="197.7"/>
	<rect x="63.2" y="6.9" class="st0" width="31.2" height="3.5"/>
	<path class="st0" d="M17.3,30.5v83.6h122.9V30.5H17.3z M49.3,71.6c-7,0-12.7-5.7-12.7-12.7c0-7,5.7-12.7,12.7-12.7
		c7,0,12.7,5.7,12.7,12.7C62,65.9,56.4,71.6,49.3,71.6z M94.4,101.5H60.6l16.9-29.2l16.9-29.2l16.9,29.2l16.9,29.2H94.4z"/>
	<rect x="17.3" y="122.9" class="st0" width="119.8" height="2.7"/>
	<rect x="17.3" y="133" class="st0" width="105.6" height="2.7"/>
	<rect x="17.3" y="143" class="st0" width="93.1" height="2.7"/>
</g>
</svg>
