<?xml version="1.0" encoding="utf-8"?>
<!-- Generator: Adobe Illustrator 17.0.0, SVG Export Plug-In . SVG Version: 6.00 Build 0)  -->
<!DOCTYPE svg PUBLIC "-//W3C//DTD SVG 1.1//EN" "http://www.w3.org/Graphics/SVG/1.1/DTD/svg11.dtd">
<svg version="1.1" id="Layer_1" xmlns="http://www.w3.org/2000/svg" xmlns:xlink="http://www.w3.org/1999/xlink" x="0px" y="0px"
	 width="555.5px" height="413.9px" viewBox="0 0 555.5 413.9" style="enable-background:new 0 0 555.5 413.9;" xml:space="preserve"
	>
<style type="text/css">
	.st0{opacity:0.3;fill:#FFFFFF;}
	.st1{opacity:0.2;fill:#FFFFFF;}
	.st2{opacity:0.1;fill:#FFFFFF;}
</style>
<g>
	<rect x="188.7" y="104.4" class="st0" width="330.5" height="7.4"/>
	<rect x="188.7" y="131.7" class="st0" width="291.3" height="7.4"/>
	<rect x="188.7" y="158.9" class="st0" width="256.8" height="7.4"/>
	<path class="st1" d="M8.5,413.9c-4.7,0-8.5-3.8-8.5-8.5L0,8.5C0,3.8,3.8,0,8.5,0L547,0c4.7,0,8.5,3.8,8.5,8.5v396.8
		c0,4.7-3.8,8.5-8.5,8.5H8.5z"/>
	<rect x="20.5" y="24.3" class="st2" width="514.5" height="306.5"/>
	<circle class="st1" cx="277.8" cy="372.3" r="13.5"/>
	<rect x="34" y="43.8" class="st1" width="487.5" height="39"/>
	<path class="st1" d="M472.3,229.6l-2.3-3.3l-21.2,15.1c-1.4-1.3-3.3-2.1-5.4-2.1c-3.4,0-6.3,2.1-7.5,5l-62.6-44.4
		c0.6-1.1,1-2.4,1-3.8c0-4.5-3.6-8.1-8.1-8.1s-8.1,3.6-8.1,8.1c0,1.5,0.4,2.9,1.1,4.1L278,257.7c-1.4-1.2-3.3-1.9-5.3-1.9
		c-2.4,0-4.6,1.1-6.1,2.8l-33.5-23.8c0.2-0.7,0.3-1.5,0.3-2.3c0-4.5-3.6-8.1-8.1-8.1s-8.1,3.6-8.1,8.1c0,0.7,0.1,1.5,0.3,2.1
		L138,291c-1.5-1.9-3.8-3.2-6.5-3.2c-2.3,0-4.4,1-5.9,2.5l-40.1-28.4l-2.3,3.3l40.4,28.7c-0.2,0.7-0.3,1.4-0.3,2.1
		c0,4.5,3.6,8.1,8.1,8.1c4.5,0,8.1-3.6,8.1-8.1c0-0.4,0-0.8-0.1-1.2l79.9-56.7c1.5,1.5,3.6,2.5,5.9,2.5c2.3,0,4.3-0.9,5.8-2.4
		l33.7,23.9c-0.1,0.6-0.2,1.2-0.2,1.8c0,4.5,3.6,8.1,8.1,8.1s8.1-3.6,8.1-8.1c0-1.1-0.2-2.1-0.6-3l81.5-57.8
		c1.2,0.7,2.6,1.2,4.2,1.2c1.7,0,3.2-0.5,4.5-1.3l64.8,46c0.7,3.8,4,6.7,8,6.7c4.5,0,8.1-3.6,8.1-8.1c0-1-0.2-1.9-0.5-2.8
		L472.3,229.6z"/>
	<rect x="34" y="104.4" class="st1" width="89" height="89"/>
	<g>
		<rect x="130.4" y="104.4" class="st1" width="40.9" height="40.9"/>
		<rect x="130.4" y="151.4" class="st1" width="40.9" height="40.9"/>
	</g>
</g>
</svg>
